<?xml version="1.0" encoding="UTF-8" standalone="no"?>
<!-- Created with Inkscape (http://www.inkscape.org/) -->

<svg
   version="1.1"
   id="svg2"
   xml:space="preserve"
   width="481.07065"
   height="327.63199"
   viewBox="0 0 481.07064 327.63199"
   sodipodi:docname="logo.svg"
   inkscape:version="1.2.1 (9c6d41e410, 2022-07-14)"
   xmlns:inkscape="http://www.inkscape.org/namespaces/inkscape"
   xmlns:sodipodi="http://sodipodi.sourceforge.net/DTD/sodipodi-0.dtd"
   xmlns="http://www.w3.org/2000/svg"
   xmlns:svg="http://www.w3.org/2000/svg"><defs
     id="defs6" /><sodipodi:namedview
     id="namedview4"
     pagecolor="#ffffff"
     bordercolor="#666666"
     borderopacity="1.0"
     inkscape:pageshadow="2"
     inkscape:pageopacity="0.0"
     inkscape:pagecheckerboard="0"
     inkscape:showpageshadow="2"
     inkscape:deskcolor="#d1d1d1"
     showgrid="false"
     inkscape:zoom="2.5852177"
     inkscape:cx="149.11704"
     inkscape:cy="201.53042"
     inkscape:window-width="1920"
     inkscape:window-height="1027"
     inkscape:window-x="-8"
     inkscape:window-y="-8"
     inkscape:window-maximized="1"
     inkscape:current-layer="g10" /><g
     id="g8"
     inkscape:groupmode="layer"
     inkscape:label="ink_ext_XXXXXX"
     transform="matrix(1.3333333,0,0,-1.3333333,-320.53733,560.66665)"><g
       id="g10"
       transform="matrix(0.07105347,0,0,0.06552538,121.8083,102.60956)"
       style="fill:#000000;fill-opacity:1"><path
         d="m 2554.3,2992.47 c -4.93,-61.23 -16.09,-107.47 -33.52,-138.75 h 229.23 v 245.32 h -187.67 z m -85.13,-193.71 v -78.42 h -62.33 v 133.38 h 6.03 c 13.41,0.44 24.8,3.46 34.18,9.05 9.39,5.59 17.2,14.63 23.46,27.15 6.26,12.5 11.16,28.92 14.75,49.26 3.57,20.33 6.47,45.25 8.71,74.74 l 10.06,140.09 h 308.32 v -300.29 h 58.98 l -0.67,-133.38 h -62.34 v 77.75 l -339.15,0.67"
         style="fill:#ffffff;fill-opacity:1;fill-rule:nonzero;stroke:none"
         id="path12" /><path
         d="m 3332.48,3105.74 -225.22,-306.98 h -101.88 v 355.25 h 62.34 V 2849.7 l 225.2,304.31 h 101.89 v -355.25 h -62.33 v 306.98"
         style="fill:#ffffff;fill-opacity:1;fill-rule:nonzero;stroke:none"
         id="path14" /><path
         d="m 3949.8,2897.96 c 0,-27.26 -6.7,-48.71 -20.11,-64.35 -13.4,-15.64 -30.16,-27.37 -50.27,-35.18 -20.11,-7.82 -41.79,-12.74 -65.01,-14.75 -23.25,-2.01 -44.7,-3.02 -64.35,-3.02 -29.49,-0.44 -56.64,1.46 -81.44,5.7 -24.8,4.25 -46.36,11.4 -64.69,21.45 -18.33,10.05 -33.07,23.68 -44.23,40.89 -11.18,17.19 -17.89,38.54 -20.11,64.01 h 67.03 c 0.89,-16.09 5.46,-29.05 13.74,-38.88 8.26,-9.83 18.87,-17.54 31.84,-23.12 12.95,-5.59 27.58,-9.39 43.91,-11.4 16.3,-2.01 32.72,-3.01 49.26,-3.01 45.12,0 79.98,4.79 104.56,14.41 24.57,9.6 36.86,24.68 36.86,45.24 0,17.43 -4.92,30.38 -14.74,38.88 -9.83,8.48 -27.48,12.73 -52.95,12.73 h -173.6 v 53.62 h 141.43 c 11.16,0 21.67,0.67 31.5,2.01 9.82,1.35 18.43,4.13 25.8,8.38 7.38,4.24 13.3,10.16 17.76,17.77 4.46,7.59 6.71,17.64 6.71,30.16 0,38.43 -37.54,58.08 -112.61,58.98 -14.31,0 -29.39,-0.67 -45.24,-2.01 -15.87,-1.34 -30.83,-4.47 -44.91,-9.38 -14.07,-4.92 -26.26,-12.4 -36.53,-22.46 -10.29,-10.05 -16.99,-23.79 -20.11,-41.22 l -64.35,-0.67 c 3.12,29.04 11.95,52.17 26.48,69.37 14.51,17.2 32.06,30.39 52.61,39.55 20.55,9.15 42.67,15.19 66.37,18.1 23.67,2.9 46,4.36 67.02,4.36 21,0 41.9,-1.91 62.67,-5.7 20.78,-3.8 39.44,-9.95 55.97,-18.43 16.52,-8.5 29.93,-19.56 40.22,-33.19 10.27,-13.63 15.41,-30.49 15.41,-50.6 0,-19.22 -3.13,-34.3 -9.38,-45.24 -6.27,-10.96 -13.18,-19.11 -20.78,-24.47 -9.38,-6.7 -19.67,-10.95 -30.83,-12.73 14.74,-0.91 27.92,-4.48 39.54,-10.73 10.28,-5.36 19.44,-13.85 27.48,-25.47 8.05,-11.62 12.07,-28.15 12.07,-49.6"
         style="fill:#ffffff;fill-opacity:1;fill-rule:nonzero;stroke:none"
         id="path16" /><path
         d="m 4156.24,2902.65 c 0.45,-21.45 6.7,-37.65 18.77,-48.59 12.06,-10.96 31.5,-16.42 58.31,-16.42 h 22.79 c 25.92,0 44.91,5.36 56.97,16.08 12.07,10.73 18.55,27.04 19.44,48.93 -0.89,21.89 -7.15,37.98 -18.77,48.26 -11.62,10.28 -30.83,15.42 -57.64,15.42 h -22.79 c -26.81,0 -46.25,-5.14 -58.31,-15.42 -12.07,-10.28 -18.32,-26.37 -18.77,-48.26 z m 235.26,-4.69 c -0.45,-37.98 -12.17,-66.81 -35.19,-86.46 -23.01,-19.66 -56.41,-29.5 -100.2,-29.5 h -22.79 c -43.79,0 -77.75,9.95 -101.88,29.83 -24.13,19.88 -36.64,50.16 -37.53,90.82 0,39.77 12.28,69.15 36.86,88.15 24.58,18.98 58.76,28.48 102.55,28.48 h 205.78 c -2.24,19.66 -7.83,35.86 -16.76,48.6 -8.94,12.73 -19.44,22.78 -31.51,30.16 -12.06,7.37 -25.13,12.5 -39.21,15.41 -14.07,2.91 -27.14,4.36 -39.21,4.36 h -6.7 c -12.07,0 -24.58,-0.9 -37.54,-2.68 -12.95,-1.79 -25.47,-5.03 -37.53,-9.72 -12.07,-4.69 -23.01,-11.06 -32.84,-19.1 -9.83,-8.05 -17.21,-18.55 -22.12,-31.5 h -65.69 c 2.24,17.42 8.6,33.28 19.1,47.58 10.51,14.3 24.36,26.7 41.56,37.2 17.2,10.5 37.09,18.66 59.65,24.47 22.57,5.8 46.59,8.72 72.06,8.72 h 5.36 c 34.85,0 64.57,-4.03 89.14,-12.07 24.58,-8.04 44.69,-20.34 60.34,-36.87 15.63,-16.53 27.02,-37.53 34.18,-63 7.14,-25.47 10.94,-55.63 11.39,-90.49 v -171.59 h -62.33 v 166.9 l -69.05,0.67 c 13.41,-18.33 20.11,-41.12 20.11,-68.37"
         style="fill:#ffffff;fill-opacity:1;fill-rule:nonzero;stroke:none"
         id="path18" /><path
         d="m 5014.19,3343.69 c 0,-40.66 -13.51,-71.61 -40.55,-92.83 -27.03,-21.23 -64.23,-31.84 -111.6,-31.84 -46.91,0 -84.11,10.16 -111.59,30.5 -27.49,20.33 -41.23,51.72 -41.23,94.17 h 56.31 c 0,-13.85 2.89,-25.8 8.71,-35.86 5.79,-10.05 13.41,-18.09 22.79,-24.13 9.38,-6.03 19.77,-10.5 31.17,-13.4 11.39,-2.91 22.66,-4.36 33.84,-4.36 11.17,0 22.46,1.45 33.85,4.36 11.4,2.9 21.67,7.37 30.83,13.4 9.16,6.04 16.65,14.08 22.46,24.13 5.81,10.06 8.71,22.01 8.71,35.86 z m -16.75,-237.95 -225.21,-306.98 h -101.89 v 355.25 h 62.33 V 2849.7 l 225.22,304.31 h 101.88 v -355.25 h -62.33 v 306.98"
         style="fill:#ffffff;fill-opacity:1;fill-rule:nonzero;stroke:none"
         id="path20" /><path
         d="m 5282.97,2943.54 v -144.78 h -62.34 v 355.25 h 62.34 v -153.5 h 259.39 v 152.83 l 62.33,0.67 v -355.25 h -61.66 v 144.78 h -260.06"
         style="fill:#ffffff;fill-opacity:1;fill-rule:nonzero;stroke:none"
         id="path22" /><path
         d="m 2495.82,3314.14 -49.34,69.03 h -20.6 v -69.03 h -18.1 v 147.11 h 18.1 v -61.33 h 21.05 l 46.63,61.33 h 22.18 l -52.51,-68.58 56.13,-78.53 h -23.54"
         style="fill:#ffffff;fill-opacity:1;fill-rule:nonzero;stroke:#ffffff;stroke-opacity:1"
         id="path24" /><path
         d="m 2495.82,3314.14 -49.34,69.03 h -20.6 v -69.03 h -18.1 v 147.11 h 18.1 v -61.33 h 21.05 l 46.63,61.33 h 22.18 l -52.51,-68.58 56.13,-78.53 z"
         style="fill:#ffffff;fill-opacity:1;stroke:#ffffff;stroke-width:7.5;stroke-linecap:butt;stroke-linejoin:miter;stroke-miterlimit:10;stroke-dasharray:none;stroke-opacity:1"
         id="path26" /><path
         d="m 2631.2,3372.08 -20.83,69.03 -20.81,-69.03 z m 17.66,-57.94 -12.46,41.19 h -52.05 l -12.45,-41.19 h -17.87 l 45.94,147.11 h 21.27 l 45.95,-147.11 h -18.33"
         style="fill:#ffffff;fill-opacity:1;fill-rule:nonzero;stroke:#ffffff;stroke-opacity:1"
         id="path28" /><path
         d="m 2631.2,3372.08 -20.83,69.03 -20.81,-69.03 z m 17.66,-57.94 -12.46,41.19 h -52.05 l -12.45,-41.19 h -17.87 l 45.94,147.11 h 21.27 l 45.95,-147.11 z"
         style="fill:#ffffff;fill-opacity:1;stroke:#ffffff;stroke-width:7.5;stroke-linecap:butt;stroke-linejoin:miter;stroke-miterlimit:10;stroke-dasharray:none;stroke-opacity:1"
         id="path30" /><path
         d="m 2763.05,3425.94 v -76.49 c 20.15,3.62 32.83,18.55 32.83,39.16 0,19.68 -12.68,33.94 -32.83,37.33 z m -18.1,-76.49 v 76.49 c -19.91,-3.39 -32.82,-17.42 -32.82,-37.33 0,-20.83 12.91,-35.77 32.82,-39.16 z m 18.1,-35.31 h -18.1 v 19.69 c -15.17,1.81 -27.39,7.7 -36.44,17.43 -9.06,9.96 -13.58,22.4 -13.58,37.35 0,14.7 4.52,26.69 13.58,36.21 9.05,9.5 21.27,15.16 36.44,16.74 v 19.69 h 18.1 v -19.69 c 15.17,-1.58 27.39,-7.24 36.45,-16.98 9.05,-9.5 13.57,-21.49 13.57,-35.97 0,-14.95 -4.52,-27.39 -13.57,-37.35 -9.06,-9.73 -21.28,-15.62 -36.45,-17.43 v -19.69"
         style="fill:#ffffff;fill-opacity:1;fill-rule:nonzero;stroke:#ffffff;stroke-opacity:1"
         id="path32" /><path
         d="m 2763.05,3425.94 v -76.49 c 20.15,3.62 32.83,18.55 32.83,39.16 0,19.68 -12.68,33.94 -32.83,37.33 z m -18.1,-76.49 v 76.49 c -19.91,-3.39 -32.82,-17.42 -32.82,-37.33 0,-20.83 12.91,-35.77 32.82,-39.16 z m 18.1,-35.31 h -18.1 v 19.69 c -15.17,1.81 -27.39,7.7 -36.44,17.43 -9.06,9.96 -13.58,22.4 -13.58,37.35 0,14.7 4.52,26.69 13.58,36.21 9.05,9.5 21.27,15.16 36.44,16.74 v 19.69 h 18.1 v -19.69 c 15.17,-1.58 27.39,-7.24 36.45,-16.98 9.05,-9.5 13.57,-21.49 13.57,-35.97 0,-14.95 -4.52,-27.39 -13.57,-37.35 -9.06,-9.73 -21.28,-15.62 -36.45,-17.43 z"
         style="fill:#ffffff;fill-opacity:1;stroke:#ffffff;stroke-width:7.5;stroke-linecap:butt;stroke-linejoin:miter;stroke-miterlimit:10;stroke-dasharray:none;stroke-opacity:1"
         id="path34" /><path
         d="m 2858.37,3314.14 v 147.11 h 90.76 v -16.74 h -72.65 v -44.59 h 56.36 v -16.75 h -56.36 v -52.28 h 73.56 v -16.75 h -91.67"
         style="fill:#ffffff;fill-opacity:1;fill-rule:nonzero;stroke:#ffffff;stroke-opacity:1"
         id="path36" /><path
         d="m 2858.37,3314.14 v 147.11 h 90.76 v -16.74 h -72.65 v -44.59 h 56.36 v -16.75 h -56.36 v -52.28 h 73.56 v -16.75 z"
         style="fill:#ffffff;fill-opacity:1;stroke:#ffffff;stroke-width:7.5;stroke-linecap:butt;stroke-linejoin:miter;stroke-miterlimit:10;stroke-dasharray:none;stroke-opacity:1"
         id="path38" /><path
         d="m 3073.87,3330.89 v 113.62 h -41.64 c -0.22,-35.99 -1.36,-62.02 -3.4,-78.31 -2.04,-16.3 -5.88,-28.07 -11.99,-35.31 z m 18.11,0 h 17.42 v -43.91 h -17.42 v 27.16 h -84.42 v -27.16 h -17.43 v 43.91 c 4.07,1.8 7.25,3.62 9.73,5.43 5.21,3.85 9.28,14.71 10.87,23.76 0.91,4.53 1.58,12.22 2.26,23.31 0.68,11.1 0.91,21.73 0.91,31.91 0.22,10.42 0.22,25.81 0.22,45.95 h 77.86 v -130.36"
         style="fill:#ffffff;fill-opacity:1;fill-rule:nonzero;stroke:#ffffff;stroke-opacity:1"
         id="path40" /><path
         d="m 3073.87,3330.89 v 113.62 h -41.64 c -0.22,-35.99 -1.36,-62.02 -3.4,-78.31 -2.04,-16.3 -5.88,-28.07 -11.99,-35.31 z m 18.11,0 h 17.42 v -43.91 h -17.42 v 27.16 h -84.42 v -27.16 h -17.43 v 43.91 c 4.07,1.8 7.25,3.62 9.73,5.43 5.21,3.85 9.28,14.71 10.87,23.76 0.91,4.53 1.58,12.22 2.26,23.31 0.68,11.1 0.91,21.73 0.91,31.91 0.22,10.42 0.22,25.81 0.22,45.95 h 77.86 z"
         style="fill:#ffffff;fill-opacity:1;stroke:#ffffff;stroke-width:7.5;stroke-linecap:butt;stroke-linejoin:miter;stroke-miterlimit:10;stroke-dasharray:none;stroke-opacity:1"
         id="path42" /><path
         d="m 3171.94,3444.51 v -51.84 h 37.34 c 6.79,0 12.68,2.5 17.65,7.7 5.21,5.21 7.7,11.55 7.7,18.79 0,15.16 -10.41,25.35 -25.13,25.35 z m 0,-68.58 v -61.79 h -18.11 v 147.11 h 59.75 c 11.55,0 21.05,-3.84 28.52,-11.54 7.47,-7.7 11.32,-17.43 11.32,-29.43 0,-13.57 -4.08,-24.43 -12,-32.35 -7.93,-7.93 -17.43,-12 -28.52,-12 h -40.96"
         style="fill:#ffffff;fill-opacity:1;fill-rule:nonzero;stroke:#ffffff;stroke-opacity:1"
         id="path44" /><path
         d="m 3171.94,3444.51 v -51.84 h 37.34 c 6.79,0 12.68,2.5 17.65,7.7 5.21,5.21 7.7,11.55 7.7,18.79 0,15.16 -10.41,25.35 -25.13,25.35 z m 0,-68.58 v -61.79 h -18.11 v 147.11 h 59.75 c 11.55,0 21.05,-3.84 28.52,-11.54 7.47,-7.7 11.32,-17.43 11.32,-29.43 0,-13.57 -4.08,-24.43 -12,-32.35 -7.93,-7.93 -17.43,-12 -28.52,-12 z"
         style="fill:#ffffff;fill-opacity:1;stroke:#ffffff;stroke-width:7.5;stroke-linecap:butt;stroke-linejoin:miter;stroke-miterlimit:10;stroke-dasharray:none;stroke-opacity:1"
         id="path46" /><path
         d="m 3353.24,3372.08 -20.83,69.03 -20.81,-69.03 z m 17.66,-57.94 -12.46,41.19 h -52.05 l -12.45,-41.19 h -17.87 l 45.94,147.11 h 21.27 l 45.95,-147.11 h -18.33"
         style="fill:#ffffff;fill-opacity:1;fill-rule:nonzero;stroke:#ffffff;stroke-opacity:1"
         id="path48" /><path
         d="m 3353.24,3372.08 -20.83,69.03 -20.81,-69.03 z m 17.66,-57.94 -12.46,41.19 h -52.05 l -12.45,-41.19 h -17.87 l 45.94,147.11 h 21.27 l 45.95,-147.11 z"
         style="fill:#ffffff;fill-opacity:1;stroke:#ffffff;stroke-width:7.5;stroke-linecap:butt;stroke-linejoin:miter;stroke-miterlimit:10;stroke-dasharray:none;stroke-opacity:1"
         id="path50" /><path
         d="m 5143.26,2501.27 v 113.62 h -41.64 c -0.23,-35.98 -1.36,-62.01 -3.4,-78.31 -2.04,-16.29 -5.88,-28.07 -11.99,-35.31 z m 18.1,0 h 17.44 v -43.91 h -17.44 v 27.16 h -84.41 v -27.16 h -17.43 v 43.91 c 4.07,1.81 7.24,3.62 9.73,5.43 5.2,3.85 9.28,14.72 10.86,23.77 0.91,4.52 1.59,12.22 2.26,23.31 0.68,11.09 0.92,21.73 0.92,31.91 0.22,10.41 0.22,25.81 0.22,45.95 h 77.85 v -130.37"
         style="fill:#ffffff;fill-opacity:1;fill-rule:nonzero;stroke:#ffffff;stroke-opacity:1"
         id="path52" /><path
         d="m 5143.26,2501.27 v 113.62 h -41.64 c -0.23,-35.98 -1.36,-62.01 -3.4,-78.31 -2.04,-16.29 -5.88,-28.07 -11.99,-35.31 z m 18.1,0 h 17.44 v -43.91 h -17.44 v 27.16 h -84.41 v -27.16 h -17.43 v 43.91 c 4.07,1.81 7.24,3.62 9.73,5.43 5.2,3.85 9.28,14.72 10.86,23.77 0.91,4.52 1.59,12.22 2.26,23.31 0.68,11.09 0.92,21.73 0.92,31.91 0.22,10.41 0.22,25.81 0.22,45.95 h 77.85 z"
         style="fill:#ffffff;fill-opacity:1;stroke:#ffffff;stroke-width:7.5;stroke-linecap:butt;stroke-linejoin:miter;stroke-miterlimit:10;stroke-dasharray:none;stroke-opacity:1"
         id="path54" /><path
         d="m 5315.33,2614.89 h -68.13 v -130.37 h -18.1 v 147.12 h 86.23 v -16.75"
         style="fill:#ffffff;fill-opacity:1;fill-rule:nonzero;stroke:#ffffff;stroke-opacity:1"
         id="path56" /><path
         d="m 5315.33,2614.89 h -68.13 v -130.37 h -18.1 v 147.12 h 86.23 z"
         style="fill:#ffffff;fill-opacity:1;stroke:#ffffff;stroke-width:7.5;stroke-linecap:butt;stroke-linejoin:miter;stroke-miterlimit:10;stroke-dasharray:none;stroke-opacity:1"
         id="path58" /><path
         d="m 5468.18,2614.89 h -48.66 v -130.37 h -18.11 v 130.37 h -48.66 v 16.75 h 115.43 v -16.75"
         style="fill:#ffffff;fill-opacity:1;fill-rule:nonzero;stroke:#ffffff;stroke-opacity:1"
         id="path60" /><path
         d="m 5468.18,2614.89 h -48.66 v -130.37 h -18.11 v 130.37 h -48.66 v 16.75 h 115.43 z"
         style="fill:#ffffff;fill-opacity:1;stroke:#ffffff;stroke-width:7.5;stroke-linecap:butt;stroke-linejoin:miter;stroke-miterlimit:10;stroke-dasharray:none;stroke-opacity:1"
         id="path62" /><path
         d="m 5513.83,2490.41 8.37,13.58 c 3.62,-3.85 8.6,-5.89 14.71,-5.89 9.05,0 13.81,5.21 19.92,19.7 l -48.89,113.84 h 19.69 l 38.48,-91.44 37.57,91.44 h 19.01 l -48.44,-115.88 c -4.98,-12 -10.18,-20.6 -15.61,-25.8 -5.21,-4.98 -12.68,-7.47 -22.18,-7.7 -8.83,0 -18.11,3.4 -22.63,8.15"
         style="fill:#ffffff;fill-opacity:1;fill-rule:nonzero;stroke:#ffffff;stroke-opacity:1"
         id="path64" /><path
         d="m 5513.83,2490.41 8.37,13.58 c 3.62,-3.85 8.6,-5.89 14.71,-5.89 9.05,0 13.81,5.21 19.92,19.7 l -48.89,113.84 h 19.69 l 38.48,-91.44 37.57,91.44 h 19.01 l -48.44,-115.88 c -4.98,-12 -10.18,-20.6 -15.61,-25.8 -5.21,-4.98 -12.68,-7.47 -22.18,-7.7 -8.83,0 -18.11,3.4 -22.63,8.15 z"
         style="fill:#ffffff;fill-opacity:1;stroke:#ffffff;stroke-width:7.5;stroke-linecap:butt;stroke-linejoin:miter;stroke-miterlimit:10;stroke-dasharray:none;stroke-opacity:1"
         id="path66" /><path
         d="m 4783.44,1747.76 c -249.44,0 -489.57,74.34 -694.43,214.98 -200.04,137.33 -353.78,328.37 -444.6,552.46 l 35.33,14.32 c 183.09,-451.73 616.31,-743.63 1103.7,-743.63 656.44,0 1190.49,534.06 1190.49,1190.49 0,656.44 -534.05,1190.49 -1190.49,1190.49 -487.39,0 -920.62,-291.89 -1103.7,-743.62 l -35.33,14.32 c 90.82,224.09 244.56,415.12 444.6,552.46 204.86,140.63 444.99,214.97 694.43,214.97 677.47,0 1228.62,-551.15 1228.62,-1228.62 0,-677.46 -551.15,-1228.62 -1228.62,-1228.62"
         style="fill:#ffffff;fill-opacity:1;fill-rule:nonzero;stroke:none;stroke-opacity:1"
         id="path68" /></g></g></svg>
